<svg viewBox="0 0 1694.42 304.18" xmlns="http://www.w3.org/2000/svg" xmlns:xlink="http://www.w3.org/1999/xlink"><clipPath id="a"><path d="m0 0h1694.42v304.18h-1694.42z"/></clipPath><clipPath id="b"><path d="m0 0h1694.42v304.18h-1694.42z"/></clipPath><g clip-path="url(#a)"><g clip-path="url(#b)"><g fill="#fff"><path d="m461.8 124.42h36.46l.28-.06c-1.86-15.9-16.42-42.59-59.82-42.59-32.87 0-57.06 21.9-57.06 48.29 0 20.7 13.34 37.8 42.8 44.1l20.16 4.5c11.78 2.4 16.42 7.8 16.42 14.4 0 7.8-6.52 14.7-20.16 14.7s-22.59-6.58-26.12-15.02h-37.02l-.12.02c1.88 16.8 17.68 45.6 63.56 45.6 40.01 0 59.24-24.6 59.24-48.6 0-21.6-15.19-39.29-45.28-45.29l-21.71-4.5c-8.35-1.5-13.94-6-13.94-13.2 0-8.4 8.67-14.7 19.53-14.7 12.6 0 19.46 5.83 22.78 12.36"/><path d="m1589.67 234.44-63.6-146.67h46.2l40.6 100.07 37.52-100.07h44.03l-58.96 146.65h.02c-2.31 5.43-4.86 10.72-7.59 15.93-4.46 8.5-9.7 16.37-15.72 23.6-6.01 7.24-13.09 13.71-21.26 19.42-5.92 4.15-18.94 9.04-35.12 9.44-6.05.14-13.35-1.25-19.7-1.81l2.64-34.88c7.24 3.05 17.62 2.76 24.65-1.56 7.02-4.3 11.57-10.12 15.72-14.21 4.51-4.48 7.9-9.98 10.56-15.92" fill-rule="evenodd"/><path d="m728.95 147.75c.93-16.2 11.16-28.8 28.53-28.8 19.84 0 28.22 12.9 28.22 29.4v86.09h41.24v-92.99c0-32.4-17.98-58.49-56.74-58.49-14.57 0-31.32 4.8-41.24 16.2v-81.9h-41.24v217.17h41.24v-86.69z"/><path d="m594.09 118.65c20.46 0 30.08 12.6 33.8 24.9l36.9-12c-6.51-24.9-30.08-49.79-71.62-49.79-44.34 0-79.06 32.7-79.06 78.29s35.35 78.29 80.3 78.29c40.62 0 64.49-25.2 71.31-49.8l-36.28-11.7c-3.41 11.4-13.95 24.9-35.04 24.9s-39.07-15-39.07-41.7 17.67-41.4 38.76-41.4"/><path d="m1460.23 118.65c20.46 0 30.07 12.6 33.79 24.9l36.9-12c-6.51-24.9-30.08-49.79-71.63-49.79-44.34 0-79.07 32.7-79.07 78.29s35.35 78.29 80.31 78.29c40.62 0 64.49-25.2 71.31-49.8l-36.27-11.7c-3.41 11.4-13.96 24.9-35.04 24.9s-39.07-15-39.07-41.7 17.67-41.4 38.76-41.4"/><path d="m931.08 198.58c-20.15 0-38.76-14.4-38.76-42s18.6-42 38.76-42 38.76 14.1 38.76 42-18.6 42-38.76 42m0-120.29c-45.58 0-79.99 32.7-79.99 78.29s34.42 78.29 79.99 78.29 79.99-33 79.99-78.29-34.41-78.29-79.99-78.29"/><path d="m1034.91 17.26h41.24v217.18h-41.24z"/><path d="m1106.48 194.54c0 23.1 19.84 44.4 52.4 44.4 22.63 0 37.2-10.2 44.95-21.89 0 5.7.62 13.8 1.56 17.69h37.83c-.93-5.1-1.86-15.59-1.86-23.4v-72.59c0-29.7-17.98-56.09-66.36-56.09-40.93 0-62.94 25.5-65.42 48.59l36.58 7.5c1.24-12.9 11.16-24 29.15-24s25.73 8.7 25.73 19.2c0 5.1-2.79 9.3-11.47 10.5l-37.52 5.4c-25.42 3.6-45.57 18.3-45.57 44.7m61.08 14.7c-13.34 0-19.84-8.4-19.84-17.1 0-11.4 8.37-17.1 18.91-18.6l34.41-5.1v6.6c0 26.1-16.12 34.2-33.48 34.2"/><path d="m1366.56 86.25c-3.1-.3-6.2-.6-9.61-.6-13.03 0-34.1 3.6-43.41 23.1v-21.9h-40.01v147.58h41.24v-67.49c0-31.79 18.3-41.69 39.38-41.69 3.72 0 7.75.3 12.41 1.2v-40.19z"/><path d="m75.86 0h154.27c6.5 0 11.77 5.27 11.77 11.77v13.47c0 6.5-5.27 11.77-11.77 11.77h-154.27c-6.5 0-11.77-5.27-11.77-11.77v-13.47c0-6.5 5.27-11.77 11.77-11.77"/><path d="m11.77 54.16h282.45c6.5 0 11.77 5.27 11.77 11.77v13.47c0 6.5-5.27 11.77-11.77 11.77h-282.45c-6.5-.01-11.77-5.28-11.77-11.78v-13.47c0-6.49 5.27-11.76 11.77-11.76"/><path d="m11.77 107.41h144.35c6.5 0 11.77 5.27 11.77 11.77v13.47c0 6.5-5.27 11.77-11.77 11.77h-144.35c-6.5-0-11.77-5.27-11.77-11.77v-13.47c0-6.5 5.27-11.77 11.77-11.77"/></g><path d="m195.91 107.41h98.31c6.5 0 11.77 5.27 11.77 11.77v13.47c0 6.5-5.27 11.77-11.77 11.77h-98.31c-6.5 0-11.77-5.27-11.77-11.77v-13.47c0-6.5 5.27-11.77 11.77-11.77" fill="#4cd1ff"/><path d="m11.77 160.67h98.31c6.5 0 11.77 5.27 11.77 11.77v13.47c0 6.5-5.27 11.77-11.77 11.77h-98.31c-6.5-.01-11.77-5.28-11.77-11.78v-13.47c0-6.5 5.27-11.77 11.77-11.77" fill="#fdc148"/><path d="m149.87 160.67h144.35c6.5 0 11.77 5.27 11.77 11.77v13.47c0 6.5-5.27 11.77-11.77 11.77h-144.35c-6.5 0-11.77-5.27-11.77-11.77v-13.47c0-6.5 5.27-11.77 11.77-11.77" fill="#fff"/><path d="m11.77 213.92h282.45c6.5 0 11.77 5.27 11.77 11.77v13.47c0 6.5-5.27 11.77-11.77 11.77h-282.45c-6.5 0-11.77-5.27-11.77-11.77v-13.47c0-6.5 5.27-11.77 11.77-11.77" fill="#fff"/><path d="m75.86 267.18h154.27c6.5 0 11.77 5.27 11.77 11.77v13.47c0 6.5-5.27 11.77-11.77 11.77h-154.27c-6.5 0-11.77-5.27-11.77-11.77v-13.47c0-6.5 5.27-11.77 11.77-11.77" fill="#fff"/></g></g></svg>