<svg width="454" height="531" viewBox="0 0 454 531" fill="none" xmlns="http://www.w3.org/2000/svg">
<g opacity="0.47">
<path opacity="0.47" d="M227.726 501.429C352.417 501.429 453.499 400.484 453.499 275.961C453.499 151.438 352.417 50.493 227.726 50.493C103.036 50.493 1.95386 151.438 1.95386 275.961C1.95386 400.484 103.036 501.429 227.726 501.429Z" stroke="white" stroke-dasharray="6 6"/>
</g>
<g opacity="0.47">
<path opacity="0.47" d="M227.726 458.435C328.64 458.435 410.447 376.739 410.447 275.961C410.447 175.183 328.64 93.4869 227.726 93.4869C126.813 93.4869 45.0059 175.183 45.0059 275.961C45.0059 376.739 126.813 458.435 227.726 458.435Z" stroke="white" stroke-dasharray="6 6"/>
</g>
<path d="M182.737 199.835V283.407H251.806V213.027L237.936 199.835H182.737ZM180.734 197.835H238.737L253.809 212.17V285.406H180.734V197.835Z" fill="#9A63E3"/>
<g opacity="0.81">
<path opacity="0.81" d="M307.669 355.337L296.636 363.342L346.852 432.365L357.885 424.359L307.669 355.337Z" stroke="white" stroke-width="2" stroke-miterlimit="10"/>
<path opacity="0.81" d="M141.839 346.894C161.074 362.268 184.397 371.68 208.927 373.968C233.458 376.256 258.122 371.32 279.875 359.769C301.629 348.218 319.518 330.558 331.336 308.969C343.153 287.38 348.381 262.808 346.374 238.286C344.367 213.764 335.213 190.365 320.042 170.98C304.87 151.594 284.346 137.069 261.003 129.2C237.66 121.33 212.521 120.459 188.688 126.695C164.855 132.931 143.373 146 126.893 164.29" stroke="white" stroke-width="2" stroke-miterlimit="10"/>
<path opacity="0.81" d="M278.4 158.451C260.855 147.236 240.416 141.374 219.585 141.584C198.755 141.793 178.438 148.065 161.123 159.631C143.808 171.197 130.246 187.554 122.099 206.7C113.951 225.846 111.572 246.95 115.252 267.426C118.932 287.902 128.512 306.861 142.818 321.983C157.124 337.104 175.536 347.731 195.798 352.561C216.06 357.391 237.293 356.216 256.896 349.178C276.499 342.14 293.621 329.546 306.166 312.938" stroke="white" stroke-width="2" stroke-miterlimit="10"/>
<path opacity="0.81" d="M130.557 166.537L123.228 169.527L123.735 161.628L130.557 166.537Z" stroke="#90939A" stroke-width="2" stroke-miterlimit="10"/>
<path opacity="0.81" d="M302.564 310.815L309.573 307.139L309.834 315.045L302.564 310.815Z" stroke="#90939A" stroke-width="2" stroke-miterlimit="10"/>
<path opacity="0.81" d="M327.26 391.974L344.872 415.245" stroke="#90939A"/>
</g>
<path d="M1.00122 214.208V166.429L11.8253 156.099H48.1191V214.208H1.00122Z" stroke="#00948F" stroke-width="2"/>
<path d="M17.9636 193.552H15.1472V201.974H13.5203V193.552H10.7107V192.171H17.9636V193.552ZM26.7273 201.974H24.7791L22.7693 198.378C22.71 198.268 22.644 198.114 22.571 197.913H22.5437C22.5027 198.013 22.4343 198.168 22.3386 198.378L20.2673 201.974H18.3054L21.5183 197.045L18.5652 192.171H20.5544L22.325 195.479C22.4389 195.698 22.5414 195.917 22.6326 196.136H22.6531C22.7852 195.849 22.8992 195.621 22.9949 195.452L24.8337 192.171H26.6658L23.6443 197.031L26.7273 201.974ZM34.3562 193.552H31.5398V201.974H29.9128V193.552H27.1033V192.171H34.3562V193.552Z" fill="white"/>
<path d="M201.24 72.2278V14.484L214.522 1.99878H259.06V72.2268L201.24 72.2278Z" stroke="#FF5722" stroke-width="2"/>
<path d="M217.146 50.6785V54.9949H215.179V43.0916H218.79C220.157 43.0916 221.217 43.4098 221.969 44.0462C222.722 44.6826 223.098 45.5791 223.098 46.7357C223.098 47.8922 222.705 48.8385 221.919 49.5745C221.134 50.3105 220.071 50.6785 218.732 50.6785H217.146ZM217.146 44.7186V49.0682H218.425C219.271 49.0682 219.916 48.8717 220.359 48.4788C220.802 48.0859 221.023 47.5325 221.023 46.8187C221.023 45.4186 220.209 44.7186 218.583 44.7186H217.146ZM225.124 54.9949V43.0916H228.56C232.948 43.0916 235.143 45.0257 235.143 48.8939C235.143 50.7311 234.534 52.2087 233.316 53.3265C232.099 54.4388 230.466 54.9949 228.419 54.9949H225.124ZM227.091 44.7684V53.3265H228.668C230.057 53.3265 231.136 52.9447 231.905 52.181C232.68 51.4173 233.067 50.3382 233.067 48.9437C233.067 46.1602 231.626 44.7684 228.743 44.7684H227.091ZM243.75 44.7684H239.301V48.346H243.402V50.0145H239.301V54.9949H237.326V43.0916H243.75V44.7684Z" fill="white"/>
<path d="M18.4243 441.35V381.928L32.0929 369.08H77.9251V441.35H18.4243Z" stroke="#9A63E3" stroke-width="2"/>
<path d="M36.9226 420.942H35.4055V416.994H31.1208V420.942H29.6101V411.84H31.1208V415.668H35.4055V411.84H36.9226V420.942ZM45.0095 413.122H42.3943V420.942H40.8835V413.122H38.2747V411.84H45.0095V413.122ZM56.1179 420.942H54.6199V415.052C54.6199 414.569 54.6495 413.979 54.7087 413.281H54.6833C54.5903 413.679 54.5077 413.964 54.4358 414.138L51.719 420.942H50.678L47.9548 414.189C47.8787 413.99 47.7983 413.687 47.7136 413.281H47.6882C47.7221 413.645 47.739 414.239 47.739 415.065V420.942H46.3425V411.84H48.469L50.8621 417.902C51.044 418.367 51.1625 418.714 51.2175 418.943H51.2493C51.4058 418.465 51.5328 418.109 51.6301 417.877L54.0676 411.84H56.1179V420.942ZM63.405 420.942H58.365V411.84H59.8757V419.667H63.405V420.942Z" fill="white"/>
<path d="M230.008 530.001V483.491L240.707 473.434H276.581V530.001H230.008Z" stroke="#FF5722" stroke-width="2"/>
<path d="M249.476 517.929H247.863V511.585C247.863 511.066 247.895 510.43 247.959 509.678H247.931C247.831 510.106 247.742 510.414 247.665 510.601L244.739 517.929H243.618L240.685 510.655C240.603 510.441 240.517 510.115 240.426 509.678H240.398C240.435 510.07 240.453 510.71 240.453 511.599V517.929H238.949V508.126H241.239L243.816 514.654C244.012 515.156 244.14 515.529 244.199 515.776H244.233C244.402 515.261 244.538 514.878 244.643 514.627L247.268 508.126H249.476V517.929ZM253.516 514.374V517.929H251.896V508.126H254.87C255.996 508.126 256.868 508.388 257.488 508.912C258.108 509.436 258.418 510.175 258.418 511.127C258.418 512.08 258.094 512.859 257.447 513.465C256.8 514.071 255.925 514.374 254.822 514.374H253.516ZM253.516 509.466V513.048H254.569C255.266 513.048 255.797 512.886 256.162 512.563C256.526 512.239 256.709 511.783 256.709 511.195C256.709 510.042 256.039 509.466 254.699 509.466H253.516ZM259.819 517.567V516.076C260.457 516.582 261.177 516.835 261.979 516.835C262.631 516.835 263.15 516.687 263.538 516.391C263.93 516.095 264.126 515.693 264.126 515.188C264.126 514.076 263.276 513.52 261.576 513.52H260.817V512.248H261.542C263.05 512.248 263.804 511.724 263.804 510.676C263.804 509.71 263.217 509.227 262.041 509.227C261.385 509.227 260.767 509.461 260.188 509.931V508.523C260.854 508.149 261.64 507.962 262.547 507.962C263.417 507.962 264.114 508.181 264.638 508.618C265.163 509.056 265.425 509.616 265.425 510.3C265.425 511.59 264.768 512.419 263.456 512.788V512.816C264.162 512.884 264.72 513.132 265.131 513.561C265.541 513.984 265.746 514.515 265.746 515.153C265.746 516.033 265.415 516.744 264.755 517.286C264.094 517.824 263.223 518.093 262.143 518.093C261.173 518.093 260.398 517.917 259.819 517.567Z" fill="white"/>
<path d="M400.435 174.213V127.178L411.253 117.009H447.528V174.208L400.435 174.213Z" stroke="#9A63E3" stroke-width="2"/>
<path d="M409.154 158.98V149.177H411.984C415.598 149.177 417.405 150.77 417.405 153.955C417.405 155.468 416.904 156.685 415.901 157.606C414.899 158.522 413.554 158.98 411.868 158.98H409.154ZM410.774 150.558V157.606H412.073C413.217 157.606 414.106 157.291 414.739 156.662C415.377 156.033 415.696 155.145 415.696 153.996C415.696 151.704 414.509 150.558 412.135 150.558H410.774ZM423.243 159.144C421.83 159.144 420.698 158.686 419.846 157.77C418.998 156.854 418.574 155.662 418.574 154.195C418.574 152.618 419.007 151.36 419.873 150.421C420.739 149.482 421.915 149.013 423.4 149.013C424.777 149.013 425.884 149.469 426.723 150.38C427.566 151.292 427.987 152.483 427.987 153.955C427.987 155.555 427.557 156.82 426.695 157.749C425.834 158.679 424.683 159.144 423.243 159.144ZM423.318 150.442C422.421 150.442 421.689 150.777 421.124 151.446C420.563 152.116 420.283 152.998 420.283 154.092C420.283 155.181 420.557 156.058 421.104 156.724C421.65 157.389 422.366 157.722 423.25 157.722C424.189 157.722 424.929 157.405 425.472 156.772C426.014 156.138 426.285 155.252 426.285 154.112C426.285 152.941 426.021 152.037 425.492 151.399C424.968 150.761 424.243 150.442 423.318 150.442ZM436.621 158.57C435.883 158.952 434.965 159.144 433.866 159.144C432.444 159.144 431.305 158.695 430.448 157.797C429.591 156.899 429.163 155.721 429.163 154.263C429.163 152.695 429.644 151.428 430.605 150.462C431.572 149.496 432.791 149.013 434.263 149.013C435.211 149.013 435.997 149.147 436.621 149.416V151.029C435.96 150.638 435.231 150.442 434.434 150.442C433.372 150.442 432.51 150.781 431.85 151.46C431.193 152.139 430.865 153.046 430.865 154.181C430.865 155.261 431.173 156.122 431.788 156.765C432.403 157.403 433.212 157.722 434.215 157.722C435.14 157.722 435.942 157.503 436.621 157.066V158.57Z" fill="white"/>
<path d="M378.558 361.187V317.546L388.597 308.11H422.258V361.187H378.558Z" stroke="#00948F" stroke-width="2"/>
<path d="M396.844 346.953H394.932L393.987 344.28H389.856L388.948 346.953H387.044L390.977 336.45H392.94L396.844 346.953ZM393.526 342.859L392.068 338.67C392.024 338.533 391.978 338.313 391.929 338.01H391.9C391.856 338.289 391.807 338.508 391.753 338.67L390.31 342.859H393.526ZM406.526 336.45L402.754 346.953H400.806L397.1 336.45H399.004L401.597 344.419C401.68 344.673 401.743 344.968 401.787 345.305H401.817C401.851 345.027 401.922 344.727 402.029 344.404L404.68 336.45H406.526ZM410.62 336.45V337.857H409.661V345.547H410.62V346.953H406.958V345.547H407.918V337.857H406.958V336.45H410.62Z" fill="white"/>
<path d="M269.342 294.469H202.227V214.994H255.692L269.342 227.764V294.469Z" fill="#0A0F1A"/>
<path d="M203.228 215.993V293.47H268.341V228.197L255.297 215.993H203.228ZM201.226 213.994H256.088L270.343 227.33V295.469H201.226V213.994Z" fill="#9A63E3"/>
<path d="M256.762 228.968H211.708V232.967H256.762V228.968Z" fill="white"/>
<path opacity="0.4" d="M237.739 238.966H211.708V242.966H237.739V238.966Z" fill="white"/>
<path opacity="0.4" d="M240.743 268.962H211.708V272.961H240.743V268.962Z" fill="white"/>
<path d="M259.766 248.965H211.708V252.964H259.766V248.965Z" fill="white"/>
<path d="M259.766 278.961H211.708V281.96H259.766V278.961Z" fill="white"/>
<path opacity="0.4" d="M250.755 259.963H211.708V263.963H250.755V259.963Z" fill="white"/>
</svg>
